<?xml version="1.0" standalone="no"?>
<!DOCTYPE svg PUBLIC "-//W3C//DTD SVG 20010904//EN"
 "http://www.w3.org/TR/2001/REC-SVG-20010904/DTD/svg10.dtd">
<svg version="1.0" xmlns="http://www.w3.org/2000/svg"
 width="700.000000pt" height="700.000000pt" viewBox="0 0 700.000000 700.000000"
 preserveAspectRatio="xMidYMid meet">
<metadata>
Created by potrace 1.14, written by Peter Selinger 2001-2017
</metadata>
<g transform="translate(0.000000,700.000000) scale(0.100000,-0.100000)"
fill="#000000" stroke="none">
<path d="M1280 6993 c-240 -24 -468 -104 -665 -234 -101 -67 -304 -269 -370
-369 -108 -163 -183 -346 -222 -545 -17 -85 -18 -224 -18 -2345 0 -2508 -5
-2305 67 -2533 66 -212 171 -381 343 -552 171 -172 340 -277 552 -343 228 -72
25 -67 2533 -67 2508 0 2305 -5 2533 67 212 66 381 171 552 343 172 171 277
340 343 552 72 228 67 25 67 2533 0 2508 5 2305 -67 2533 -66 212 -171 381
-343 552 -171 171 -338 275 -552 344 -218 70 -18 64 -2488 66 -1227 1 -2246 0
-2265 -2z m1920 -1558 c184 -36 368 -112 530 -220 103 -68 302 -269 370 -372
29 -46 55 -83 56 -83 2 0 25 13 51 28 116 68 281 112 422 112 87 0 230 -31
318 -68 200 -83 375 -263 452 -462 65 -168 77 -364 31 -527 -25 -89 -25 -93
-1 -93 30 0 170 -50 246 -88 114 -56 204 -122 295 -212 159 -159 263 -354 312
-585 16 -78 16 -333 0 -410 -101 -468 -439 -804 -902 -897 -52 -10 -419 -13
-1820 -13 -1660 0 -1760 1 -1840 18 -515 110 -889 485 -996 997 -25 119 -26
364 -1 480 62 291 204 533 417 714 100 85 207 152 310 197 l85 37 7 124 c16
281 92 511 245 740 61 91 214 252 307 322 194 146 429 243 668 275 100 13 335
6 438 -14z"/>
</g>
</svg>
